<svg width="16" height="16" viewBox="0 0 16 16" fill="none" xmlns="http://www.w3.org/2000/svg">
<path d="M8.00004 14.4333C7.79337 14.4333 7.59337 14.4066 7.42671 14.3467C4.88004 13.4733 0.833374 10.3733 0.833374 5.79332C0.833374 3.45998 2.72004 1.56665 5.04004 1.56665C6.16671 1.56665 7.22004 2.00665 8.00004 2.79332C8.78004 2.00665 9.83337 1.56665 10.96 1.56665C13.28 1.56665 15.1667 3.46665 15.1667 5.79332C15.1667 10.38 11.12 13.4733 8.57337 14.3467C8.40671 14.4066 8.20671 14.4333 8.00004 14.4333ZM5.04004 2.56665C3.27337 2.56665 1.83337 4.01332 1.83337 5.79332C1.83337 10.3466 6.21337 12.88 7.75337 13.4066C7.87337 13.4466 8.13337 13.4466 8.25337 13.4066C9.78671 12.88 14.1734 10.3533 14.1734 5.79332C14.1734 4.01332 12.7334 2.56665 10.9667 2.56665C9.95337 2.56665 9.01337 3.03998 8.40671 3.85998C8.22004 4.11332 7.79337 4.11332 7.60671 3.85998C6.98671 3.03332 6.05337 2.56665 5.04004 2.56665Z" fill="#292D32"/>
</svg>
